<svg height="512pt" viewBox="-61 0 512 512" width="512pt" xmlns="http://www.w3.org/2000/svg"><path d="m390 376v121c0 8.398438-6.597656 15-15 15h-45l-15-30-15 30h-210l-15-30-15 30h-45c-8.402344 0-15-6.601562-15-15v-121c0-24.902344 20.097656-45 45-45h300c24.902344 0 45 20.097656 45 45zm0 0" fill="#bbdcff"/><path d="m390 376v121c0 8.398438-6.597656 15-15 15h-45l-15-30-15 30h-105v-181h150c24.902344 0 45 20.097656 45 45zm0 0" fill="#9abadb"/><path d="m360 333.699219-59.097656-3.898438 46.796875 32.097657-144.898438 87c-2.402343 1.5-5.101562 2.101562-7.800781 2.101562s-5.398438-.601562-7.800781-2.101562l-150-90c-4.5-2.699219-7.199219-7.5-7.199219-12.898438v-180c0-90.902344 74.097656-166 165-166s165 75.097656 165 166zm0 0" fill="#e0f4ff"/><path d="m360 333.699219-59.097656-3.898438 46.796875 32.097657-144.898438 87c-2.402343 1.5-5.101562 2.101562-7.800781 2.101562v-451c90.902344 0 165 75.097656 165 166zm0 0" fill="#bbdcff"/><path d="m360 346v-12.425781l-179.046875-33.878907c-8.027344-1.523437-15.96875 3.808594-17.519531 11.953126-1.539063 8.128906 3.808594 15.980468 11.953125 17.519531l172.4375 32.628906 4.894531-2.9375c4.511719-2.707031 7.28125-7.585937 7.28125-12.859375zm-15 0h.292969zm0 0" fill="#8bafd1"/><path d="m75 421c-8.285156 0-15 6.714844-15 15v76h30v-76c0-8.285156-6.714844-15-15-15zm0 0" fill="#9abadb"/><path d="m315 421c-8.285156 0-15 6.714844-15 15v76h30v-76c0-8.285156-6.714844-15-15-15zm0 0" fill="#8bafd1"/><path d="m300 166v23.699219h-210v-23.699219c0-57.898438 47.101562-105 105-105s105 47.101562 105 105zm0 0" fill="#bbdcff"/><path d="m300 166v23.699219h-105v-128.699219c57.898438 0 105 47.101562 105 105zm0 0" fill="#9abadb"/><path d="m300 189.699219v36.300781c0 55.5-45.601562 105-105 105-59.097656 0-105-48.601562-105-105v-36.300781l4.5-4.199219c27.902344-27.902344 64.199219-41.699219 100.5-41.699219s72.597656 13.796875 100.5 41.699219zm0 0" fill="#fed2a4"/><path d="m300 189.699219v36.300781c0 55.5-45.601562 105-105 105v-187.199219c36.300781 0 72.597656 13.796875 100.5 41.699219zm0 0" fill="#ffbd86"/><path d="m226.800781 257.800781c-8.398437 8.398438-19.800781 13.199219-31.800781 13.199219-.601562 0-3.898438 0-4.199219-.300781-1.800781 0-3-.300781-4.199219-.601563-10.199218-1.796875-19.5-7.199218-26.398437-15.296875-5.101563-6.601562-4.199219-15.902343 2.097656-21.300781 6.300781-5.101562 15.898438-4.199219 21 2.101562 2.398438 2.699219 5.398438 4.496094 8.699219 5.097657h3c5.097656-.300781 8.402344-1.800781 10.5-4.199219 6-5.699219 15.300781-5.699219 21.300781 0 6 6 6 15.300781 0 21.300781zm0 0" fill="#da90f8"/><path d="m226.800781 236.5c6 6 6 15.300781 0 21.300781-8.398437 8.398438-19.800781 13.199219-31.800781 13.199219v-30.300781c5.097656-.300781 8.402344-1.800781 10.5-4.199219 6-5.699219 15.300781-5.699219 21.300781 0zm0 0" fill="#b760ea"/></svg>